<?xml version="1.0" encoding="UTF-8"?>
<svg version="1.1" xmlns="http://www.w3.org/2000/svg" width="32" height="32">
<path d="M0 0 C5.78080986 4.90492958 5.78080986 4.90492958 7.0625 8.75 C7.97888053 20.1342658 7.97888053 20.1342658 4.0625 24.75 C1.08015779 28.10513499 -0.87933351 29.58432716 -5.4609375 29.953125 C-12.43112382 30.06770341 -15.90996178 29.44114509 -21.1875 24.75 C-24.65172414 20.7908867 -24.20896048 16.41106344 -24.15625 11.41015625 C-23.72605454 6.1786722 -20.76185648 3.09631192 -16.9375 -0.25 C-11.52405449 -2.05448184 -5.27917144 -2.24645593 0 0 Z M-20.3125 7.5625 C-22.26382523 11.39009949 -22.5440099 13.50443071 -21.9375 17.75 C-19.50239342 22.52655522 -16.71405522 25.31489342 -11.9375 27.75 C-7.69193071 28.3565099 -5.57759949 28.07632523 -1.75 26.125 C2.43840349 22.58812594 4.77579047 19.75696671 5.5625 14.25 C4.77579047 8.74303329 2.43840349 5.91187406 -1.75 2.375 C-9.55118468 -1.60207454 -14.98627777 1.25513157 -20.3125 7.5625 Z " fill="#FFFFFF" transform="translate(23.9375,2.25)"/>
<path d="M0 0 C3.375 -0.125 3.375 -0.125 7 0 C7.66 0.66 8.32 1.32 9 2 C9.33 1.34 9.66 0.68 10 0 C11.98 0 13.96 0 16 0 C17.62950412 4.12168689 18.26264601 6.70700357 17 11 C11.33333333 11 5.66666667 11 0 11 C0 7.37 0 3.74 0 0 Z M3 2 C3 4.31 3 6.62 3 9 C4.32 8.34 5.64 7.68 7 7 C6.73323796 5.01508358 6.73323796 5.01508358 6 3 C5.01 2.67 4.02 2.34 3 2 Z M12 2 C12 2.66 12 3.32 12 4 C12.66 4 13.32 4 14 4 C14 3.34 14 2.68 14 2 C13.34 2 12.68 2 12 2 Z M12 7 C12 7.66 12 8.32 12 9 C12.99 9 13.98 9 15 9 C15 8.34 15 7.68 15 7 C14.01 7 13.02 7 12 7 Z " fill="#FFFFFF" transform="translate(7,11)"/>
</svg>
